<svg height="496pt" viewBox="0 0 496.00003 496" width="496pt" xmlns="http://www.w3.org/2000/svg" xmlns:xlink="http://www.w3.org/1999/xlink"><linearGradient id="a"><stop offset="0" stop-color="#003f8a"/><stop offset=".518" stop-color="#00d7df"/><stop offset="1" stop-color="#006df0"/></linearGradient><linearGradient id="b" gradientUnits="userSpaceOnUse" x1="-128.647972" x2="358.976028" xlink:href="#a" y1="384.648015" y2="-102.975985"/><linearGradient id="c" gradientUnits="userSpaceOnUse" x1="5.352028" x2="492.976028" xlink:href="#a" y1="518.648015" y2="31.024015"/><linearGradient id="d" gradientUnits="userSpaceOnUse" x1="5.008028" x2="492.624028" xlink:href="#a" y1="518.296015" y2="30.680015"/><linearGradient id="e" gradientUnits="userSpaceOnUse" x1="35.352028" x2="522.976028" xlink:href="#a" y1="548.648015" y2="61.024015"/><linearGradient id="f" gradientUnits="userSpaceOnUse" x1="81.352028" x2="568.976028" xlink:href="#a" y1="594.648015" y2="107.024015"/><linearGradient id="g" gradientUnits="userSpaceOnUse" x1="93.352028" x2="580.976028" xlink:href="#a" y1="606.648015" y2="119.024015"/><linearGradient id="h" gradientUnits="userSpaceOnUse" x1="123.352028" x2="610.976028" xlink:href="#a" y1="636.648015" y2="149.024015"/><linearGradient id="i" gradientUnits="userSpaceOnUse" x1="139.352028" x2="626.976028" xlink:href="#a" y1="652.648015" y2="165.024015"/><linearGradient id="j" gradientUnits="userSpaceOnUse" x1="101.352028" x2="588.976028" xlink:href="#a" y1="614.648015" y2="127.024015"/><linearGradient id="k" gradientUnits="userSpaceOnUse" x1="85.352028" x2="572.976028" xlink:href="#a" y1="598.648015" y2="111.024015"/><linearGradient id="l" gradientUnits="userSpaceOnUse" x1="69.352028" x2="556.976028" xlink:href="#a" y1="582.648015" y2="95.024015"/><path d="m176 48c-17.671875 0-32 14.328125-32 32s14.328125 32 32 32 32-14.328125 32-32-14.328125-32-32-32zm0 48c-8.835938 0-16-7.164062-16-16s7.164062-16 16-16 16 7.164062 16 16-7.164062 16-16 16zm0 0" fill="url(#b)"/><path d="m488 160h-168c-4.417969 0-8 3.582031-8 8v180.6875c-4.394531-2.191406-9-3.925781-13.753906-5.167969-1.652344-.488281-74.246094-14.160156-74.246094-14.160156v-25.054687c24.5-12.058594 40.011719-36.996094 40-64.304688v-72h24c4.417969 0 8-3.582031 8-8v-32c0-4.417969-3.582031-8-8-8h-9.3125c-6.519531-43.277344-37.011719-79.113281-78.6875-92.472656v-19.527344c0-4.417969-3.582031-8-8-8h-32c-4.417969 0-8 3.582031-8 8v19.527344c-41.675781 13.359375-72.167969 49.195312-78.6875 92.472656h-9.3125c-4.417969 0-8 3.582031-8 8v32c0 4.417969 3.582031 8 8 8h24v72c-.011719 27.304688 15.503906 52.238281 40 64.296875v25.0625s-72.59375 13.671875-73.992188 14.089844l-.191406.0625h-.0625c-31.683594 8.25-53.7812498 36.871093-53.753906 69.609375v74.878906c0 4.417969 3.582031 8 8 8h336c4.417969 0 8-3.582031 8-8v-74.878906c-.015625-4.402344-.429688-8.792969-1.238281-13.121094h137.238281c4.417969 0 8-3.582031 8-8v-224c0-4.417969-3.582031-8-8-8zm-328 152h32c5.019531-.011719 10.027344-.546875 14.9375-1.601562.359375-.054688.710938-.101563 1.0625-.183594v17.785156h-64v-17.800781c.34375.082031.695312.128906 1.046875.183593 4.914063 1.058594 9.925781 1.601563 14.953125 1.617188zm40.457031 32-24.457031 34.230469-24.457031-34.230469zm-32.457031-320v-8h16v8zm8 16c44.839844 0 79.257812 39.886719 86.558594 80h-173.117188c7.300782-40.113281 41.757813-80 86.558594-80zm-104 96h208v16h-208zm32 104v-72h144v72c.054688 22.828125-13.789062 43.390625-34.960938 51.929688-6.691406 2.679687-13.832031 4.0625-21.039062 4.070312h-32c-7.191406-.003906-14.316406-1.378906-20.992188-4.046875-21.191406-8.53125-35.058593-29.105469-35.007812-51.953125zm-88 173.121094c.03125-21.574219 12.488281-41.195313 32-50.402344v117.28125h-32zm48-55.449219 32-6.023437v128.351562h-32zm48-9.03125 20.457031-3.839844 37.03125 51.847657c1.5 2.105468 3.925781 3.351562 6.511719 3.351562s5.011719-1.246094 6.511719-3.351562l37.03125-51.847657 20.457031 3.839844v131.359375h-128zm144 131.359375v-128.351562l32 6.023437v122.328125zm80-66.878906v66.878906h-32v-117.359375c2.785156 1.296875 5.460938 2.824219 8 4.558594v24.800781c0 4.417969 3.582031 8 8 8h14.457031c1.019531 4.300781 1.535157 8.703125 1.542969 13.121094zm144-29.121094h-152v-208h152zm0 0" fill="url(#c)"/><path d="m318.398438 135.839844 40 8c.527343.109375 1.0625.164062 1.601562.160156h112c13.253906 0 24-10.746094 24-24s-10.746094-24-24-24h-112c-.285156.039062-.570312.09375-.847656.167969-.25 0-.480469-.0625-.71875 0l-40 8c-3.738282.746093-6.425782 4.023437-6.433594 7.832031v16c0 3.800781 2.675781 7.078125 6.398438 7.839844zm161.601562-15.839844c0 4.417969-3.582031 8-8 8h-16v-16h16c4.417969 0 8 3.582031 8 8zm-40 8h-72v-16h72zm-112-9.441406 24-4.796875v12.476562l-24-4.796875zm0 0" fill="url(#d)"/><path d="m344 248h48c4.417969 0 8-3.582031 8-8v-48c0-4.417969-3.582031-8-8-8h-48c-4.417969 0-8 3.582031-8 8v48c0 4.417969 3.582031 8 8 8zm8-48h32v32h-32zm0 0" fill="url(#e)"/><path d="m344 280h120c4.417969 0 8-3.582031 8-8s-3.582031-8-8-8h-120c-4.417969 0-8 3.582031-8 8s3.582031 8 8 8zm0 0" fill="url(#f)"/><path d="m344 312h104c4.417969 0 8-3.582031 8-8s-3.582031-8-8-8h-104c-4.417969 0-8 3.582031-8 8s3.582031 8 8 8zm0 0" fill="url(#g)"/><path d="m344 376h96c4.417969 0 8-3.582031 8-8s-3.582031-8-8-8h-96c-4.417969 0-8 3.582031-8 8s3.582031 8 8 8zm0 0" fill="url(#h)"/><path d="m464 328h-16c-4.417969 0-8 3.582031-8 8s3.582031 8 8 8h16c4.417969 0 8-3.582031 8-8s-3.582031-8-8-8zm0 0" fill="url(#i)"/><path d="m344 344h72c4.417969 0 8-3.582031 8-8s-3.582031-8-8-8h-72c-4.417969 0-8 3.582031-8 8s3.582031 8 8 8zm0 0" fill="url(#j)"/><path d="m424 248h40c4.417969 0 8-3.582031 8-8s-3.582031-8-8-8h-40c-4.417969 0-8 3.582031-8 8s3.582031 8 8 8zm0 0" fill="url(#k)"/><path d="m424 216h40c4.417969 0 8-3.582031 8-8s-3.582031-8-8-8h-40c-4.417969 0-8 3.582031-8 8s3.582031 8 8 8zm0 0" fill="url(#l)"/></svg>