<?xml version="1.0"?>
<svg xmlns="http://www.w3.org/2000/svg" xmlns:xlink="http://www.w3.org/1999/xlink" xmlns:svgjs="http://svgjs.com/svgjs" version="1.1" width="512" height="512" x="0" y="0" viewBox="0 0 506.984 506.984" style="enable-background:new 0 0 512 512" xml:space="preserve"><g><g xmlns="http://www.w3.org/2000/svg"><path d="m0 1.82v501.213l501.213-501.213zm30 345h30v-30h-30v-45h30v-30h-30v-45h30v-30h-30v-45h30v-30h-30v-60h60v30h30v-30h45v30h30v-30h45v30h30v-30h45v30h30v-30h83.787l-398.787 398.786z" fill="#ffffff" data-original="#000000" style=""/><path d="m90 308.033 216.213-216.213h-216.213zm30-186.213h113.787l-113.787 113.786z" fill="#ffffff" data-original="#000000" style=""/><path d="m422.132 229.393c-23.448-23.447-61.401-23.452-84.852.001l-148.493 148.492 127.278 127.279 190.919-190.919zm-63.64 21.213c11.724-11.724 30.699-11.725 42.427 0l63.64 63.64-106.067 106.066-84.853-84.853zm-127.279 127.28 21.213-21.213 84.854 84.853-21.214 21.213z" fill="#ffffff" data-original="#000000" style=""/></g></g></svg>
